<svg height="2766" width="720" xmlns="http://www.w3.org/2000/svg">
<rect height="2766" fill="#555" width="720"></rect>
<text fill="#7f7" font-family="Courier New" font-size="12" xml:space="preserve">
<tspan x="10" y="26">36 megabytes installed</tspan>
<tspan x="10" y="42"></tspan>
<tspan x="10" y="58">node_modules</tspan>
<tspan x="10" y="74">└─┬ lazo@3.0.1 </tspan>
<tspan x="10" y="90">  ├── async@0.6.2 </tspan>
<tspan x="10" y="106">  ├── backbone@1.1.1 </tspan>
<tspan x="10" y="122">  ├─┬ continuation-local-storage@3.1.0 </tspan>
<tspan x="10" y="138">  │ ├─┬ async-listener@0.4.7 </tspan>
<tspan x="10" y="154">  │ │ └── shimmer@1.0.0 </tspan>
<tspan x="10" y="170">  │ └── emitter-listener@1.0.1 </tspan>
<tspan x="10" y="186">  ├─┬ crumb@3.1.0 </tspan>
<tspan x="10" y="202">  │ ├── cryptiles@2.0.5 </tspan>
<tspan x="10" y="218">  │ └── hoek@2.16.3 </tspan>
<tspan x="10" y="234">  ├── flexo.js@0.2.11 </tspan>
<tspan x="10" y="250">  ├─┬ forever@0.10.8 </tspan>
<tspan x="10" y="266">  │ ├─┬ cliff@0.1.8 </tspan>
<tspan x="10" y="282">  │ │ ├── colors@0.6.2 </tspan>
<tspan x="10" y="298">  │ │ ├── eyes@0.1.8 </tspan>
<tspan x="10" y="314">  │ │ └─┬ winston@0.6.2 </tspan>
<tspan x="10" y="330">  │ │   ├── async@0.1.22 </tspan>
<tspan x="10" y="346">  │ │   ├── pkginfo@0.2.3 </tspan>
<tspan x="10" y="362">  │ │   └── request@2.9.203 </tspan>
<tspan x="10" y="378">  │ ├── colors@0.6.0-1 </tspan>
<tspan x="10" y="394">  │ ├─┬ flatiron@0.3.5 </tspan>
<tspan x="10" y="410">  │ │ ├─┬ broadway@0.2.7 </tspan>
<tspan x="10" y="426">  │ │ │ ├── eventemitter2@0.4.11 </tspan>
<tspan x="10" y="442">  │ │ │ └─┬ winston@0.6.2 </tspan>
<tspan x="10" y="458">  │ │ │   ├── async@0.1.22 </tspan>
<tspan x="10" y="474">  │ │ │   ├── colors@0.6.2 </tspan>
<tspan x="10" y="490">  │ │ │   ├── pkginfo@0.2.3 </tspan>
<tspan x="10" y="506">  │ │ │   └── request@2.9.203 </tspan>
<tspan x="10" y="522">  │ │ ├── director@1.1.10 </tspan>
<tspan x="10" y="538">  │ │ ├── optimist@0.3.5 </tspan>
<tspan x="10" y="554">  │ │ └─┬ prompt@0.2.9 </tspan>
<tspan x="10" y="570">  │ │   ├─┬ read@1.0.7 </tspan>
<tspan x="10" y="586">  │ │   │ └── mute-stream@0.0.7 </tspan>
<tspan x="10" y="602">  │ │   ├── revalidator@0.1.8 </tspan>
<tspan x="10" y="618">  │ │   └─┬ winston@0.6.2 </tspan>
<tspan x="10" y="634">  │ │     ├── async@0.1.22 </tspan>
<tspan x="10" y="650">  │ │     ├── colors@0.6.2 </tspan>
<tspan x="10" y="666">  │ │     ├── pkginfo@0.2.3 </tspan>
<tspan x="10" y="682">  │ │     └── request@2.9.203 </tspan>
<tspan x="10" y="698">  │ ├─┬ forever-monitor@1.2.2 </tspan>
<tspan x="10" y="714">  │ │ ├─┬ minimatch@0.0.5 </tspan>
<tspan x="10" y="730">  │ │ │ └── lru-cache@1.0.6 </tspan>
<tspan x="10" y="746">  │ │ ├─┬ ps-tree@0.0.3 </tspan>
<tspan x="10" y="762">  │ │ │ └─┬ event-stream@0.5.3 </tspan>
<tspan x="10" y="778">  │ │ │   └── optimist@0.2.8 </tspan>
<tspan x="10" y="794">  │ │ └── watch@0.5.1 </tspan>
<tspan x="10" y="810">  │ ├─┬ nconf@0.6.7 </tspan>
<tspan x="10" y="826">  │ │ ├── async@0.1.22 </tspan>
<tspan x="10" y="842">  │ │ ├── ini@1.3.4 </tspan>
<tspan x="10" y="858">  │ │ ├── optimist@0.3.7 </tspan>
<tspan x="10" y="874">  │ │ └── pkginfo@0.2.3 </tspan>
<tspan x="10" y="890">  │ ├─┬ nssocket@0.5.3 </tspan>
<tspan x="10" y="906">  │ │ ├── eventemitter2@0.4.14 </tspan>
<tspan x="10" y="922">  │ │ └── lazy@1.0.11 </tspan>
<tspan x="10" y="938">  │ ├─┬ optimist@0.4.0 </tspan>
<tspan x="10" y="954">  │ │ └── wordwrap@0.0.3 </tspan>
<tspan x="10" y="970">  │ ├── pkginfo@0.3.0 </tspan>
<tspan x="10" y="986">  │ ├── timespan@2.0.1 </tspan>
<tspan x="10" y="1002">  │ ├─┬ utile@0.1.7 </tspan>
<tspan x="10" y="1018">  │ │ ├── async@0.1.22 </tspan>
<tspan x="10" y="1034">  │ │ ├── deep-equal@1.0.1 </tspan>
<tspan x="10" y="1050">  │ │ ├── i@0.3.5 </tspan>
<tspan x="10" y="1066">  │ │ ├── mkdirp@0.5.1 </tspan>
<tspan x="10" y="1082">  │ │ ├── ncp@0.2.7 </tspan>
<tspan x="10" y="1098">  │ │ └── rimraf@1.0.9 </tspan>
<tspan x="10" y="1114">  │ ├── watch@0.7.0 </tspan>
<tspan x="10" y="1130">  │ └─┬ winston@0.7.1 </tspan>
<tspan x="10" y="1146">  │   ├── async@0.2.10 </tspan>
<tspan x="10" y="1162">  │   ├── colors@0.6.2 </tspan>
<tspan x="10" y="1178">  │   ├── cycle@1.0.3 </tspan>
<tspan x="10" y="1194">  │   ├─┬ request@2.16.6 </tspan>
<tspan x="10" y="1210">  │   │ ├── aws-sign@0.2.0 </tspan>
<tspan x="10" y="1226">  │   │ ├── cookie-jar@0.2.0 </tspan>
<tspan x="10" y="1242">  │   │ ├── forever-agent@0.2.0 </tspan>
<tspan x="10" y="1258">  │   │ ├─┬ form-data@0.0.10 </tspan>
<tspan x="10" y="1274">  │   │ │ └── async@0.2.10 </tspan>
<tspan x="10" y="1290">  │   │ ├─┬ hawk@0.10.2 </tspan>
<tspan x="10" y="1306">  │   │ │ ├── boom@0.3.8 </tspan>
<tspan x="10" y="1322">  │   │ │ ├── cryptiles@0.1.3 </tspan>
<tspan x="10" y="1338">  │   │ │ ├── hoek@0.7.6 </tspan>
<tspan x="10" y="1354">  │   │ │ └─┬ sntp@0.1.4 </tspan>
<tspan x="10" y="1370">  │   │ │   └── hoek@0.7.6 </tspan>
<tspan x="10" y="1386">  │   │ ├── json-stringify-safe@3.0.0 </tspan>
<tspan x="10" y="1402">  │   │ ├── oauth-sign@0.2.0 </tspan>
<tspan x="10" y="1418">  │   │ ├── qs@0.5.6 </tspan>
<tspan x="10" y="1434">  │   │ └── tunnel-agent@0.2.0 </tspan>
<tspan x="10" y="1450">  │   └── stack-trace@0.0.9 </tspan>
<tspan x="10" y="1466">  ├─┬ fs-extra@0.6.3 </tspan>
<tspan x="10" y="1482">  │ ├── jsonfile@1.0.1 </tspan>
<tspan x="10" y="1498">  │ ├── mkdirp@0.3.5 </tspan>
<tspan x="10" y="1514">  │ ├── ncp@0.4.2 </tspan>
<tspan x="10" y="1530">  │ └── rimraf@2.2.8 </tspan>
<tspan x="10" y="1546">  ├─┬ handlebars@2.0.0 </tspan>
<tspan x="10" y="1562">  │ ├── optimist@0.3.7 </tspan>
<tspan x="10" y="1578">  │ └─┬ uglify-js@2.3.6 </tspan>
<tspan x="10" y="1594">  │   ├── async@0.2.10 </tspan>
<tspan x="10" y="1610">  │   ├── optimist@0.3.7 </tspan>
<tspan x="10" y="1626">  │   └─┬ source-map@0.1.43 </tspan>
<tspan x="10" y="1642">  │     └── amdefine@1.0.1 </tspan>
<tspan x="10" y="1658">  ├─┬ hapi@6.7.1 </tspan>
<tspan x="10" y="1674">  │ ├── boom@2.10.1 </tspan>
<tspan x="10" y="1690">  │ ├── catbox@3.4.3 </tspan>
<tspan x="10" y="1706">  │ ├── catbox-memory@1.1.2 </tspan>
<tspan x="10" y="1722">  │ ├── iron@2.1.3 </tspan>
<tspan x="10" y="1738">  │ ├── items@1.1.1 </tspan>
<tspan x="10" y="1754">  │ ├─┬ joi@4.9.0 </tspan>
<tspan x="10" y="1770">  │ │ ├── isemail@1.2.0 </tspan>
<tspan x="10" y="1786">  │ │ └── moment@2.18.1 </tspan>
<tspan x="10" y="1802">  │ ├── kilt@1.1.1 </tspan>
<tspan x="10" y="1818">  │ ├── lru-cache@2.5.2 </tspan>
<tspan x="10" y="1834">  │ ├── mime-types@1.0.2 </tspan>
<tspan x="10" y="1850">  │ ├─┬ multiparty@3.2.10 </tspan>
<tspan x="10" y="1866">  │ │ ├─┬ readable-stream@1.1.14 </tspan>
<tspan x="10" y="1882">  │ │ │ ├── core-util-is@1.0.2 </tspan>
<tspan x="10" y="1898">  │ │ │ ├── inherits@2.0.3 </tspan>
<tspan x="10" y="1914">  │ │ │ ├── isarray@0.0.1 </tspan>
<tspan x="10" y="1930">  │ │ │ └── string_decoder@0.10.31 </tspan>
<tspan x="10" y="1946">  │ │ └── stream-counter@0.2.0 </tspan>
<tspan x="10" y="1962">  │ ├── negotiator@0.4.9 </tspan>
<tspan x="10" y="1978">  │ ├─┬ optimist@0.6.1 </tspan>
<tspan x="10" y="1994">  │ │ └── minimist@0.0.8 </tspan>
<tspan x="10" y="2010">  │ ├── qs@2.4.2 </tspan>
<tspan x="10" y="2026">  │ ├── semver@2.3.2 </tspan>
<tspan x="10" y="2042">  │ ├── shot@1.7.0 </tspan>
<tspan x="10" y="2058">  │ ├── statehood@1.2.0 </tspan>
<tspan x="10" y="2074">  │ ├── topo@1.1.0 </tspan>
<tspan x="10" y="2090">  │ └── wreck@3.0.0 </tspan>
<tspan x="10" y="2106">  ├── hermes-conrad@1.0.2 </tspan>
<tspan x="10" y="2122">  ├── htmlparser@1.7.7 </tspan>
<tspan x="10" y="2138">  ├── htmlparser-tostring@0.0.2 </tspan>
<tspan x="10" y="2154">  ├── jquery@1.11.1 </tspan>
<tspan x="10" y="2170">  ├── jquery.cookie@1.4.1 </tspan>
<tspan x="10" y="2186">  ├── lodash@2.4.1 </tspan>
<tspan x="10" y="2202">  ├── node-dir@0.1.5 </tspan>
<tspan x="10" y="2218">  ├─┬ request@2.40.0 </tspan>
<tspan x="10" y="2234">  │ ├── aws-sign2@0.5.0 </tspan>
<tspan x="10" y="2250">  │ ├── forever-agent@0.5.2 </tspan>
<tspan x="10" y="2266">  │ ├─┬ form-data@0.1.4 </tspan>
<tspan x="10" y="2282">  │ │ ├── async@0.9.2 </tspan>
<tspan x="10" y="2298">  │ │ ├─┬ combined-stream@0.0.7 </tspan>
<tspan x="10" y="2314">  │ │ │ └── delayed-stream@0.0.5 </tspan>
<tspan x="10" y="2330">  │ │ └── mime@1.2.11 </tspan>
<tspan x="10" y="2346">  │ ├─┬ hawk@1.1.1 </tspan>
<tspan x="10" y="2362">  │ │ ├── boom@0.4.2 </tspan>
<tspan x="10" y="2378">  │ │ ├── cryptiles@0.2.2 </tspan>
<tspan x="10" y="2394">  │ │ ├── hoek@0.9.1 </tspan>
<tspan x="10" y="2410">  │ │ └── sntp@0.2.4 </tspan>
<tspan x="10" y="2426">  │ ├─┬ http-signature@0.10.1 </tspan>
<tspan x="10" y="2442">  │ │ ├── asn1@0.1.11 </tspan>
<tspan x="10" y="2458">  │ │ ├── assert-plus@0.1.5 </tspan>
<tspan x="10" y="2474">  │ │ └── ctype@0.5.3 </tspan>
<tspan x="10" y="2490">  │ ├── json-stringify-safe@5.0.1 </tspan>
<tspan x="10" y="2506">  │ ├── node-uuid@1.4.8 </tspan>
<tspan x="10" y="2522">  │ ├── oauth-sign@0.3.0 </tspan>
<tspan x="10" y="2538">  │ ├── qs@1.0.2 </tspan>
<tspan x="10" y="2554">  │ ├── stringstream@0.0.5 </tspan>
<tspan x="10" y="2570">  │ ├─┬ tough-cookie@2.3.2 </tspan>
<tspan x="10" y="2586">  │ │ └── punycode@1.4.1 </tspan>
<tspan x="10" y="2602">  │ └── tunnel-agent@0.4.3 </tspan>
<tspan x="10" y="2618">  ├── requirejs@2.1.11 </tspan>
<tspan x="10" y="2634">  ├── requirejs-plugins@1.0.2 </tspan>
<tspan x="10" y="2650">  ├── requirejs-text@2.0.12 </tspan>
<tspan x="10" y="2666">  ├── underscore@1.6.0 </tspan>
<tspan x="10" y="2682">  └─┬ yargs@3.6.0 </tspan>
<tspan x="10" y="2698">    ├── camelcase@1.2.1 </tspan>
<tspan x="10" y="2714">    ├── decamelize@1.2.0 </tspan>
<tspan x="10" y="2730">    ├── window-size@0.1.0 </tspan>
<tspan x="10" y="2746">    └── wordwrap@0.0.2</tspan>
</text>
</svg>
